<svg width="397" height="206" viewBox="0 0 397 206" fill="none" xmlns="http://www.w3.org/2000/svg">
<path d="M72.8138 26.128V101.584H59.6618V64.72H26.7338V101.584H13.5818V26.128H26.7338V55.888H59.6618V26.128H72.8138ZM81.4958 101.584L110.104 26.128H122.104L148.12 101.584H134.2L127.672 80.272H101.464L93.7838 101.584H81.4958ZM115.672 41.008L104.44 71.92H125.08L115.672 41.008ZM220.386 26.128V101.584H209.058L168.834 45.328V101.584H156.738V26.128H167.586L208.29 82.864V26.128H220.386ZM229.152 101.584L257.76 26.128H269.76L295.776 101.584H281.856L275.328 80.272H249.12L241.44 101.584H229.152ZM263.328 41.008L252.096 71.92H272.736L263.328 41.008Z" fill="#008E71"/>
<path d="M159.262 184.584L133.246 109.128H146.782L165.694 169.8L187.774 109.128H199.87L171.262 184.584H159.262ZM221.64 184.584H208.488V109.128H221.64V184.584ZM278.181 109.128V117.96H249.765V140.52H277.413V149.352H249.765V175.752H280.485V184.584H236.613V109.128H278.181ZM328.703 109.128H341.087L356.543 169.608L371.327 109.128H382.75L363.551 184.584H349.247L334.175 126.408L319.295 184.584H304.703L285.215 109.128H298.079L313.439 169.512L328.703 109.128Z" fill="#C3293B"/>
</svg>
