<svg width="283" height="76" viewBox="0 0 283 76" fill="none" xmlns="http://www.w3.org/2000/svg">
<path d="M59.8138 0.127998V75.584H46.6618V38.72H13.7338V75.584H0.58175V0.127998H13.7338V29.888H46.6618V0.127998H59.8138ZM68.4958 75.584L97.1038 0.127998H109.104L135.12 75.584H121.2L114.672 54.272H88.4638L80.7838 75.584H68.4958ZM102.672 15.008L91.4398 45.92H112.08L102.672 15.008ZM207.386 0.127998V75.584H196.058L155.834 19.328V75.584H143.738V0.127998H154.586L195.29 56.864V0.127998H207.386ZM216.152 75.584L244.76 0.127998H256.76L282.776 75.584H268.856L262.328 54.272H236.12L228.44 75.584H216.152ZM250.328 15.008L239.096 45.92H259.736L250.328 15.008Z" fill="#008E71"/>
</svg>
